<?xml version="1.0" encoding="UTF-8" standalone="no"?>
<svg width="142px" height="142px" viewBox="0 0 142 142" version="1.1" xmlns="http://www.w3.org/2000/svg" xmlns:xlink="http://www.w3.org/1999/xlink">
    <!-- Generator: Sketch 3.8.3 (29802) - http://www.bohemiancoding.com/sketch -->
    <title>Group 31</title>
    <desc>Created with Sketch.</desc>
    <defs>
        <linearGradient x1="49.9147296%" y1="0%" x2="50%" y2="100%" id="linearGradient-1">
            <stop stop-color="#3023AE" offset="0%"></stop>
            <stop stop-color="#53A0FE" offset="47.5247532%"></stop>
            <stop stop-color="#B4ED50" offset="100%"></stop>
        </linearGradient>
    </defs>
    <g id="Page-1" stroke="none" stroke-width="1" fill="none" fill-rule="evenodd">
        <g id="Home" transform="translate(-774.000000, -1645.000000)">
            <g id="Group-17" transform="translate(200.000000, 1645.000000)">
                <g id="Group-15" transform="translate(574.000000, 0.000000)">
                    <g id="Group-31">
                        <circle id="Oval-2" fill="#F7F7F7" cx="71" cy="71" r="71"></circle>
                        <g id="yacht" transform="translate(16.000000, 29.000000)" fill="url(#linearGradient-1)">
                            <g id="Group">
                                <path d="M107.555131,65.9952861 L80.1735548,65.9952861 L84.5803637,57.2433683 C84.8611168,56.6857082 84.8264064,56.0215127 84.4892192,55.4959074 C84.151796,54.9703021 83.5614824,54.6622456 82.9369307,54.6827512 L45.0999563,55.9852153 L45.0999563,52.4247697 L90.6953038,48.7837154 C91.4114722,48.726441 92.0220926,48.2430255 92.2409808,47.5599743 C92.459633,46.8769231 92.2433421,46.1295265 91.6931699,45.6682666 L45.0999563,6.60070709 L45.0999563,1.76773088 C45.0999563,0.791472038 44.3070472,0 43.3290156,0 C42.3509841,0 41.5580749,0.791472038 41.5580749,1.76773088 L41.5580749,18.388408 L28.468462,50.1198843 C28.2604355,50.6242768 28.297271,51.1963145 28.568343,51.6700664 C28.839415,52.1435826 29.3144994,52.465781 29.8554627,52.5430898 L41.5580749,54.2118277 L41.5580749,56.1073066 L28.156068,56.5685665 C27.6361198,56.5864795 27.1504098,56.8316049 26.8278625,57.2391258 C26.5053152,57.6466467 26.3785158,58.1750804 26.4809943,58.6841868 L27.9551253,65.9955217 L1.77094069,65.9955217 C0.79290918,65.9955217 0,66.7869938 0,67.7632526 C0,68.7395115 0.79290918,69.5309835 1.77094069,69.5309835 L107.555131,69.5309835 C108.533163,69.5309835 109.326072,68.7395115 109.326072,67.7632526 C109.326072,66.7869938 108.533163,65.9952861 107.555131,65.9952861 L107.555131,65.9952861 Z M86.1090397,45.6032141 L45.0999563,48.8779944 L45.0999563,18.7311121 L45.0999563,18.7153203 L45.0999563,11.2177844 L86.1090397,45.6032141 L86.1090397,45.6032141 Z M32.6103381,49.3642383 L41.5580749,27.673709 L41.5580749,50.6400686 L32.6103381,49.3642383 L32.6103381,49.3642383 Z M30.3652575,60.0300193 L80.0748544,58.3188558 L76.2094812,65.9952861 L31.5678443,65.9952861 L30.3652575,60.0300193 Z M73.5530701,73.5376045 L39.5510088,73.5376045 C38.5729773,73.5376045 37.7800681,74.3290765 37.7800681,75.3053353 C37.7800681,76.2815942 38.5729773,77.0730662 39.5510088,77.0730662 L73.5530701,77.0730662 C74.5311017,77.0730662 75.3240108,76.2815942 75.3240108,75.3053353 C75.3240108,74.3290765 74.5311017,73.5376045 73.5530701,73.5376045 Z M31.9949952,73.5376045 L16.8829679,73.5376045 C15.9049364,73.5376045 15.1120273,74.3290765 15.1120273,75.3053353 C15.1120273,76.2815942 15.9049364,77.0730662 16.8829679,77.0730662 L31.9949952,77.0730662 C32.9730267,77.0730662 33.7659359,76.2815942 33.7659359,75.3053353 C33.7659359,74.3290765 32.9732628,73.5376045 31.9949952,73.5376045 Z M84.8870906,73.5376045 L81.1090838,73.5376045 C80.1310523,73.5376045 79.3381431,74.3290765 79.3381431,75.3053353 C79.3381431,76.2815942 80.1310523,77.0730662 81.1090838,77.0730662 L84.8870906,77.0730662 C85.8651221,77.0730662 86.6580313,76.2815942 86.6580313,75.3053353 C86.6580313,74.3290765 85.8651221,73.5376045 84.8870906,73.5376045 Z M69.7750633,81.0799229 L50.8852654,81.0799229 C49.9072339,81.0799229 49.1143247,81.8713949 49.1143247,82.8476537 C49.1143247,83.8239126 49.9072339,84.6153846 50.8852654,84.6153846 L69.7750633,84.6153846 C70.7530948,84.6153846 71.546004,83.8239126 71.546004,82.8476537 C71.546004,81.8713949 70.7530948,81.0799229 69.7750633,81.0799229 Z M43.3292518,81.0799229 L39.5510088,81.0799229 C38.5729773,81.0799229 37.7800681,81.8713949 37.7800681,82.8476537 C37.7800681,83.8239126 38.5729773,84.6153846 39.5510088,84.6153846 L43.3292518,84.6153846 C44.3072833,84.6153846 45.1001925,83.8239126 45.1001925,82.8476537 C45.1001925,81.8713949 44.3072833,81.0799229 43.3292518,81.0799229 Z" id="Combined-Shape"></path>
                            </g>
                        </g>
                    </g>
                </g>
            </g>
        </g>
    </g>
</svg>