<?xml version="1.0" encoding="UTF-8" standalone="no"?>
<svg width="142px" height="142px" viewBox="0 0 142 142" version="1.1" xmlns="http://www.w3.org/2000/svg" xmlns:xlink="http://www.w3.org/1999/xlink">
    <!-- Generator: Sketch 3.8.3 (29802) - http://www.bohemiancoding.com/sketch -->
    <title>Group 28</title>
    <desc>Created with Sketch.</desc>
    <defs>
        <linearGradient x1="49.9147296%" y1="0%" x2="50%" y2="100%" id="linearGradient-1">
            <stop stop-color="#3023AE" offset="0%"></stop>
            <stop stop-color="#53A0FE" offset="47.5247532%"></stop>
            <stop stop-color="#B4ED50" offset="100%"></stop>
        </linearGradient>
    </defs>
    <g id="Page-1" stroke="none" stroke-width="1" fill="none" fill-rule="evenodd">
        <g id="Home" transform="translate(-200.000000, -1648.000000)">
            <g id="Group-17" transform="translate(200.000000, 1645.000000)">
                <g id="Group-13" transform="translate(0.000000, 3.000000)">
                    <g id="Group-28">
                        <g id="Group-29">
                            <circle id="Oval-2" fill="#F7F7F7" cx="71" cy="71" r="71"></circle>
                            <g id="hat" transform="translate(26.000000, 36.000000)" fill="url(#linearGradient-1)">
                                <g id="Capa_1">
                                    <g id="Group">
                                        <path d="M89.3789347,22.4329553 L46.885567,0.374536082 C46.0169416,-0.0762542955 44.9835395,-0.0762542955 44.1146735,0.374536082 L1.62154639,22.4329553 C0.625429553,22.9501375 0.000240549828,23.9789691 0,25.1013746 C0,25.1013746 0,25.1013746 0,25.1016151 L0,36.6152921 C0,38.275567 1.34611684,39.6221649 3.00687285,39.6221649 C4.66762887,39.6221649 6.0137457,38.275567 6.0137457,36.6152921 L6.0137457,30.0502062 L12.4587973,33.3960137 L12.4587973,57.3408247 C12.4587973,57.9679381 12.6548454,58.5794158 13.02,59.0898625 C13.3327148,59.5269416 20.9581443,69.7952921 45.5002405,69.7952921 C70.0423368,69.7952921 77.6670447,59.5269416 77.98,59.0898625 C78.3446735,58.5796564 78.5404811,57.9679381 78.5404811,57.3408247 L78.5404811,33.3960137 L89.3789347,27.7700344 C90.3750515,27.2528522 91.0002405,26.2237801 91.0002405,25.1013746 C91.0002405,23.9789691 90.374811,22.9501375 89.3789347,22.4329553 L89.3789347,22.4329553 Z M72.5267354,56.1799313 C70.5299313,58.0992784 63.1265292,63.7820275 45.5002405,63.7820275 C27.8739519,63.7820275 20.4700687,58.0992784 18.4730241,56.1799313 L18.4730241,36.51811 L44.1149141,49.8289347 C44.5493471,50.0545704 45.0246735,50.1671478 45.5002405,50.1671478 C45.9758076,50.1671478 46.4516151,50.0543299 46.885567,49.8289347 L72.5267354,36.5183505 L72.5267354,56.1799313 L72.5267354,56.1799313 Z M45.5002405,43.7723711 L9.53347079,25.1018557 L45.5002405,6.43109966 L81.4670103,25.1018557 L45.5002405,43.7723711 Z M3.0071134,42.2732646 C1.34635739,42.2732646 0.000240549828,43.619622 0.000240549828,45.2801375 L0.000240549828,48.9165292 C0.000240549828,50.5770447 1.34635739,51.9234021 3.0071134,51.9234021 C4.66786942,51.9234021 6.01398625,50.5770447 6.01398625,48.9165292 L6.01398625,45.2801375 C6.01398625,43.619622 4.66786942,42.2732646 3.0071134,42.2732646 Z" id="Combined-Shape"></path>
                                    </g>
                                </g>
                            </g>
                        </g>
                    </g>
                </g>
            </g>
        </g>
    </g>
</svg>