<?xml version="1.0" encoding="UTF-8" standalone="no"?>
<svg width="142px" height="142px" viewBox="0 0 142 142" version="1.1" xmlns="http://www.w3.org/2000/svg" xmlns:xlink="http://www.w3.org/1999/xlink">
    <!-- Generator: Sketch 3.8.3 (29802) - http://www.bohemiancoding.com/sketch -->
    <title>Group 32</title>
    <desc>Created with Sketch.</desc>
    <defs>
        <linearGradient x1="49.9147296%" y1="0%" x2="50%" y2="100%" id="linearGradient-1">
            <stop stop-color="#3023AE" offset="0%"></stop>
            <stop stop-color="#53A0FE" offset="47.5247532%"></stop>
            <stop stop-color="#B4ED50" offset="100%"></stop>
        </linearGradient>
    </defs>
    <g id="Page-1" stroke="none" stroke-width="1" fill="none" fill-rule="evenodd">
        <g id="Home" transform="translate(-1080.000000, -1645.000000)">
            <g id="Group-17" transform="translate(200.000000, 1645.000000)">
                <g id="Group-14" transform="translate(861.000000, 0.000000)">
                    <g id="Group-32" transform="translate(19.000000, 0.000000)">
                        <circle id="Oval-2" fill="#F7F7F7" cx="71" cy="71" r="71"></circle>
                        <g id="briefcase" transform="translate(27.000000, 31.000000)" fill="url(#linearGradient-1)">
                            <path d="M76.5330078,13.3642691 L59.9117288,13.3642691 L59.9117288,7.33178654 C59.9117288,3.28909513 56.5837168,0 52.4931918,0 L34.4633299,0 C30.372805,0 27.0447929,3.28909513 27.0447929,7.33178654 L27.0447929,13.3642691 L10.4235139,13.3642691 C4.67593201,13.3642691 0,17.985522 0,23.6658933 L0,47.424594 C0,49.8357309 1.18414875,51.9782831 3.00741854,53.3152668 C3.0068551,53.3317865 3.00497699,53.3477494 3.00497699,53.3642691 L3.00497699,69.6983759 C3.00497699,75.3787471 7.68090901,80 13.4284909,80 L73.5280308,80 C79.2756127,80 83.9515447,75.3787471 83.9515447,69.6983759 L83.9515447,53.3642691 C83.9515447,53.3477494 83.9496666,53.3317865 83.9491032,53.3152668 C85.772373,51.9782831 86.9565217,49.8357309 86.9565217,47.424594 L86.9565217,23.6658933 C86.9565217,17.985522 82.2805897,13.3642691 76.5330078,13.3642691 L76.5330078,13.3642691 Z M29.8619589,7.33178654 C29.8619589,4.82431555 31.9260024,2.78422274 34.4633299,2.78422274 L52.4931918,2.78422274 C55.0305193,2.78422274 57.0945629,4.82431555 57.0945629,7.33178654 L57.0945629,13.3642691 L53.9017748,13.3642691 L53.9017748,7.33178654 C53.9017748,6.56296984 53.2712931,5.93967517 52.4931918,5.93967517 L34.4633299,5.93967517 C33.6852287,5.93967517 33.0547469,6.56296984 33.0547469,7.33178654 L33.0547469,13.3642691 L29.8619589,13.3642691 L29.8619589,7.33178654 L29.8619589,7.33178654 Z M35.8719129,13.3642691 L35.8719129,8.72389791 L51.0846089,8.72389791 L51.0846089,13.3642691 L35.8719129,13.3642691 L35.8719129,13.3642691 Z M81.1343788,69.6983759 C81.1343788,73.8435267 77.7222274,77.2157773 73.5280308,77.2157773 L13.4284909,77.2157773 C9.2342943,77.2157773 5.82214292,73.8435267 5.82214292,69.6983759 L5.82214292,54.5835731 C6.33674523,54.6956845 6.87050427,54.7563805 7.41853695,54.7563805 L15.024885,54.7563805 L15.024885,56.3341067 C15.024885,58.7393039 17.0047892,60.6960557 19.4384449,60.6960557 L22.4434219,60.6960557 C24.8770777,60.6960557 26.8569819,58.7393039 26.8569819,56.3341067 L26.8569819,54.7563805 L60.0995399,54.7563805 L60.0995399,56.3341067 C60.0995399,58.7393039 62.0794441,60.6960557 64.5130998,60.6960557 L67.5180768,60.6960557 C69.9517326,60.6960557 71.9316368,58.7393039 71.9316368,56.3341067 L71.9316368,54.7563805 L79.5379848,54.7563805 C80.0860175,54.7563805 80.6197765,54.6954988 81.1343788,54.5835731 L81.1343788,69.6983759 L81.1343788,69.6983759 Z M24.0398159,51.9721578 L17.8420509,51.9721578 L17.8420509,50.3944316 C17.8420509,49.5244548 18.5581745,48.8167053 19.4384449,48.8167053 L22.4434219,48.8167053 C23.3236924,48.8167053 24.0398159,49.5244548 24.0398159,50.3944316 L24.0398159,51.9721578 L24.0398159,51.9721578 Z M24.0398159,54.7563805 L24.0398159,56.3341067 C24.0398159,57.2040835 23.3236924,57.9118329 22.4434219,57.9118329 L19.4384449,57.9118329 C18.5581745,57.9118329 17.8420509,57.2040835 17.8420509,56.3341067 L17.8420509,54.7563805 L24.0398159,54.7563805 L24.0398159,54.7563805 Z M69.1144708,51.9721578 L62.9167058,51.9721578 L62.9167058,50.3944316 C62.9167058,49.5244548 63.6328294,48.8167053 64.5130998,48.8167053 L67.5180768,48.8167053 C68.3983473,48.8167053 69.1144708,49.5244548 69.1144708,50.3944316 L69.1144708,51.9721578 L69.1144708,51.9721578 Z M69.1144708,54.7563805 L69.1144708,56.3341067 C69.1144708,57.2040835 68.3983473,57.9118329 67.5180768,57.9118329 L64.5130998,57.9118329 C63.6328294,57.9118329 62.9167058,57.2040835 62.9167058,56.3341067 L62.9167058,54.7563805 L69.1144708,54.7563805 L69.1144708,54.7563805 Z M84.1393558,47.424594 C84.1393558,49.932065 82.0753122,51.9721578 79.5379848,51.9721578 L71.9316368,51.9721578 L71.9316368,50.3944316 C71.9316368,47.9892343 69.9517326,46.0324826 67.5180768,46.0324826 L64.5130998,46.0324826 C62.0794441,46.0324826 60.0995399,47.9892343 60.0995399,50.3944316 L60.0995399,51.9721578 L26.8569819,51.9721578 L26.8569819,50.3944316 C26.8569819,47.9892343 24.8770777,46.0324826 22.4434219,46.0324826 L19.4384449,46.0324826 C17.0047892,46.0324826 15.024885,47.9892343 15.024885,50.3944316 L15.024885,51.9721578 L7.41853695,51.9721578 C4.8812095,51.9721578 2.81716593,49.932065 2.81716593,47.424594 L2.81716593,23.6658933 C2.81716593,19.5207425 6.22931731,16.1484919 10.4235139,16.1484919 L76.5330078,16.1484919 C80.7272044,16.1484919 84.1393558,19.5207425 84.1393558,23.6658933 L84.1393558,47.424594 L84.1393558,47.424594 Z" id="Shape"></path>
                        </g>
                    </g>
                </g>
            </g>
        </g>
    </g>
</svg>