<?xml version="1.0" encoding="UTF-8" standalone="no"?>
<svg width="142px" height="142px" viewBox="0 0 142 142" version="1.1" xmlns="http://www.w3.org/2000/svg" xmlns:xlink="http://www.w3.org/1999/xlink">
    <!-- Generator: Sketch 3.8.3 (29802) - http://www.bohemiancoding.com/sketch -->
    <title>Group 30</title>
    <desc>Created with Sketch.</desc>
    <defs>
        <linearGradient x1="49.9147296%" y1="0%" x2="50%" y2="100%" id="linearGradient-1">
            <stop stop-color="#3023AE" offset="0%"></stop>
            <stop stop-color="#53A0FE" offset="47.5247532%"></stop>
            <stop stop-color="#B4ED50" offset="100%"></stop>
        </linearGradient>
    </defs>
    <g id="Page-1" stroke="none" stroke-width="1" fill="none" fill-rule="evenodd">
        <g id="Home" transform="translate(-487.000000, -1647.000000)">
            <g id="Group-17" transform="translate(200.000000, 1645.000000)">
                <g id="Group-16" transform="translate(287.000000, 2.000000)">
                    <g id="Group-30">
                        <circle id="Oval-2" fill="#F7F7F7" cx="71" cy="71" r="71"></circle>
                        <g id="mountain" transform="translate(21.000000, 21.000000)">
                            <g id="Capa_1">
                                <g id="Group">
                                    <path d="M68.511828,38.9319892 C67.222043,38.9319892 66.1728495,39.9811828 66.1728495,41.2709677 C66.1728495,42.5607527 67.222043,43.6099462 68.511828,43.6099462 C69.8016129,43.6099462 70.8510753,42.5607527 70.8510753,41.2709677 C70.8510753,39.9811828 69.8018817,38.9319892 68.511828,38.9319892 L68.511828,38.9319892 Z" id="Shape" fill="#3943C2"></path>
                                    <path d="M26.6473118,37.5766129 C25.3575269,37.5766129 24.3083333,38.6258065 24.3083333,39.9155914 C24.3083333,41.2053763 25.3575269,42.2545699 26.6473118,42.2545699 C27.9370968,42.2545699 28.9865591,41.2053763 28.9865591,39.9155914 C28.9865591,38.6258065 27.9370968,37.5766129 26.6473118,37.5766129 L26.6473118,37.5766129 Z" id="Shape" fill="#3943C2"></path>
                                    <path d="M50.7599462,25.3008065 C49.4701613,25.3008065 48.4209677,26.35 48.4209677,27.6397849 C48.4209677,28.9295699 49.4701613,29.9787634 50.7599462,29.9787634 C52.0497312,29.9787634 53.0991935,28.9295699 53.0991935,27.6397849 C53.0991935,26.35 52.0497312,25.3008065 50.7599462,25.3008065 L50.7599462,25.3008065 Z" id="Shape" fill="#3943C2"></path>
                                    <path d="M35.0817204,17.7739247 C33.7919355,17.7739247 32.7427419,18.8231183 32.7427419,20.1129032 C32.7427419,21.4026882 33.7919355,22.4518817 35.0817204,22.4518817 C36.3715054,22.4518817 37.4209677,21.4026882 37.4209677,20.1129032 C37.4209677,18.8231183 36.3715054,17.7739247 35.0817204,17.7739247 L35.0817204,17.7739247 Z" id="Shape" fill="#3943C2"></path>
                                    <path d="M69.6153226,21.3860215 C69.6153226,20.0962366 68.566129,19.047043 67.2760753,19.047043 C65.9862903,19.047043 64.9370968,20.0962366 64.9370968,21.3860215 C64.9370968,22.6758065 65.9862903,23.725 67.2760753,23.725 C68.5658602,23.725 69.6153226,22.6755376 69.6153226,21.3860215 L69.6153226,21.3860215 Z" id="Shape" fill="#3943C2"></path>
                                    <path d="M50,0 C22.4298387,0 0,22.4298387 0,50 C0,77.5701613 22.4298387,100 50,100 C77.5701613,100 100,77.5701613 100,50 C100,22.4298387 77.5701613,0 50,0 L50,0 Z M12.7913978,74.6037634 C11.1564516,72.1395161 9.75994624,69.5045699 8.6344086,66.7314516 C8.71827957,66.6655914 8.8,66.5956989 8.87741935,66.5185484 L15.3438172,60.0521505 L21.3435484,66.0518817 L12.7913978,74.6037634 L12.7913978,74.6037634 Z M50,94.6236559 C36.4268817,94.6236559 24.2518817,88.5306452 16.0607527,78.938172 L33.619086,61.3795699 L40.1741935,67.9346774 C40.6782258,68.4387097 41.3620968,68.722043 42.075,68.722043 C42.7879032,68.722043 43.4717742,68.4387097 43.9758065,67.9346774 L50.8225806,61.0876344 L57.6693548,67.9346774 C58.1733871,68.4387097 58.8572581,68.722043 59.5701613,68.722043 C60.2830645,68.722043 60.9669355,68.4387097 61.4709677,67.9346774 L67.9002688,61.5053763 L84.5733871,78.1784946 C76.3844086,88.2080645 63.927957,94.6236559 50,94.6236559 L50,94.6236559 Z M37.4209677,57.5776882 L50.697043,44.3016129 L64.0991935,57.7037634 L59.5706989,62.2322581 L52.7239247,55.3852151 C52.2198925,54.8811828 51.5360215,54.5978495 50.8231183,54.5978495 C50.1102151,54.5978495 49.4263441,54.8811828 48.9223118,55.3852151 L42.0755376,62.2322581 L37.4209677,57.5776882 L37.4209677,57.5776882 Z M87.7567204,73.7577957 L79.3537634,65.3551075 L84.6564516,60.0524194 L91.1228495,66.5188172 C91.2002688,66.5962366 91.2819892,66.6658602 91.3658602,66.7317204 C90.3677419,69.1897849 89.1575269,71.5395161 87.7567204,73.7577957 L87.7567204,73.7577957 Z M86.5572581,54.3497312 C85.5075269,53.3 83.8053763,53.3 82.7553763,54.3497312 L75.5518817,61.5532258 L52.5975806,38.5989247 C52.0935484,38.0948925 51.4099462,37.8115591 50.6967742,37.8115591 C49.9836022,37.8115591 49.3,38.0948925 48.7959677,38.5989247 L25.1448925,62.25 L17.2443548,54.3494624 C16.1946237,53.2997312 14.4924731,53.2997312 13.4424731,54.3494624 L6.75806452,61.0344086 C5.85672043,57.5040323 5.37634409,53.8072581 5.37634409,50 C5.37634409,25.3943548 25.3943548,5.37634409 50,5.37634409 C74.6056452,5.37634409 94.6236559,25.3943548 94.6236559,50 C94.6236559,53.8072581 94.1432796,57.5040323 93.2419355,61.0344086 L86.5572581,54.3497312 L86.5572581,54.3497312 Z" id="Shape" fill="url(#linearGradient-1)"></path>
                                </g>
                            </g>
                        </g>
                    </g>
                </g>
            </g>
        </g>
    </g>
</svg>