<?xml version="1.0" encoding="UTF-8" standalone="no"?>
<svg width="20px" height="20px" viewBox="0 0 20 20" version="1.1" xmlns="http://www.w3.org/2000/svg" xmlns:xlink="http://www.w3.org/1999/xlink">
    <!-- Generator: Sketch 3.8.3 (29802) - http://www.bohemiancoding.com/sketch -->
    <title>Shape</title>
    <desc>Created with Sketch.</desc>
    <defs></defs>
    <g id="Page-1" stroke="none" stroke-width="1" fill="none" fill-rule="evenodd">
        <g id="News-List" transform="translate(-331.000000, -344.000000)" fill="#9B9B9B">
            <g id="NewsBlock" transform="translate(304.000000, 318.000000)">
                <g id="Group-14" transform="translate(27.000000, 25.000000)">
                    <g id="attachment" transform="translate(10.095583, 11.002963) rotate(-60.000000) translate(-10.095583, -11.002963) translate(1.004674, 6.002963)">
                        <path d="M5,10 C2.27272727,10 2.50304827e-13,7.72727273 2.50304827e-13,5 C2.50304827e-13,2.27272727 2.27272727,1.93784382e-14 5,1.93784382e-14 L14.5454545,1.93784382e-14 C16.5454545,1.93784382e-14 18.1818182,1.63636364 18.1818182,3.63636364 C18.1818182,5.63636364 16.5454545,7.27272727 14.5454545,7.27272727 L6.81818182,7.27272727 C5.54545455,7.27272727 4.54545455,6.27272727 4.54545455,5 C4.54545455,3.72727273 5.54545455,2.72727273 6.81818182,2.72727273 L13.6363636,2.72727273 L13.6363636,4.09090909 L6.81818182,4.09090909 C6.27272727,4.09090909 5.90909091,4.45454545 5.90909091,5 C5.90909091,5.54545455 6.27272727,5.90909091 6.81818182,5.90909091 L14.5454545,5.90909091 C15.8181818,5.90909091 16.8181818,4.90909091 16.8181818,3.63636364 C16.8181818,2.36363636 15.8181818,1.36363636 14.5454545,1.36363636 L5,1.36363636 C3,1.36363636 1.36363636,3 1.36363636,5 C1.36363636,7 3,8.63636364 5,8.63636364 L13.6363636,8.63636364 L13.6363636,10 L5,10 L5,10 Z" id="Shape"></path>
                    </g>
                </g>
            </g>
        </g>
    </g>
</svg>